<svg width="170" height="259" xmlns="http://www.w3.org/2000/svg" viewBox="0 0 170 259"><g fill="none" fill-rule="evenodd"><path fill="#80BC00" d="M0 0h170v170H0z"/><path d="M69.8 87.3c6.2-.9 11-2.2 14.4-3.7 3.4-1.6 6.8-4.1 10-7.6 3.3-3.5 6.1-7.9 8.5-13.2 2.4-5.3 3.6-10.3 3.6-14.9 0-2-.5-3.5-1.6-4.6-1.1-1.1-2.5-1.7-4.2-1.7-3.4 0-7.2 2.4-11.4 7.1-7.7 8.5-14.2 21.4-19.3 38.6m-1 5.6c-.6 4.6-.9 8.4-.9 11.3 0 5.3 1.5 9.5 4.6 12.7 3.1 3.2 7.2 4.8 12.3 4.8 4.9 0 9.9-1.1 14.9-3.2s10.7-5.9 17.3-11.2l3.1 2.7c-8.1 9.2-16 15.7-23.7 19.6-7.7 3.9-16.2 5.9-25.5 5.9-11.8 0-19.9-2.8-24.4-8.5-4.5-5.6-6.8-12.2-6.8-19.6 0-11.6 3.4-23.1 10.1-34.7C56.5 61.2 65.7 52 77.3 45s23.2-10.5 35-10.5c5.9 0 10.4 1.4 13.4 4.2 3 2.8 4.6 6.4 4.6 10.7 0 5.1-1.5 10.1-4.4 15-4.1 6.6-9.2 12-15.4 16-6.2 4.1-13.1 7.1-20.8 9.3-5.3 1.4-12.2 2.4-20.9 3.2" fill="#FFF" fill-rule="nonzero"/><path fill="#0075C9" d="M0 173.7h170v85H0z"/><path d="M21.1 196.1l-.3.1h-1.3l-.3-.1-3.1-4.4c-.1-.1-.1-.2-.1-.3 0-.2.1-.3.4-.3h1.7l.3.2 1.5 2.4c.1.1.2.2.3.2.1 0 .2-.1.3-.2l1.5-2.4.3-.2H24c.3 0 .4.1.4.3 0 .1 0 .2-.1.3l-3.2 4.4zm-4.1 6.2c0 1.4 1.3 1.8 3.8 2.3 3.8.7 5.6 1.7 5.6 4.4 0 3.2-2.3 5.3-5.8 5.3h-1.1c-3.5 0-5.7-2.1-5.7-3.5 0-.1.1-.2.2-.2l2-1c.1 0 .1-.1.2-.1s.2.1.3.2c.8 1.1 1.5 2 3 2h1.1c1.6 0 2.7-.9 2.7-2 0-1.5-1.5-1.7-4.5-2.3-3.3-.7-4.9-1.7-4.9-4.3 0-3.1 2.3-5.2 5.7-5.2h1.1c3.5 0 5.7 2.1 5.7 3.5 0 .1-.1.2-.2.2l-2 1c-.1 0-.2.1-.2.1-.1 0-.1-.1-.3-.2-.9-1.1-1.5-2-3-2h-1.1c-1.7 0-2.6.6-2.6 1.8z" fill="#FFF" fill-rule="nonzero"/><path d="M37.2 214.2c-2.9 0-5.7-2.4-5.7-5.9v-7c0-.2-.1-.4-.4-.4h-1.9c-.3 0-.3-.1-.3-.3l.1-1.2 4-4.3.3-.1h1.1c.2 0 .4.1.4.4v2.5c0 .3.1.3.3.3h2.5c.3 0 .4.1.4.3v2.1c0 .2-.1.3-.4.3h-2.5c-.2 0-.3.1-.3.4v7c0 .7.3 1.4.8 2 .3.4 1.1.6 2.1 1.1.2.1.3.1.3.3v2.1c-.1.4-.3.4-.8.4M54 213.9h-2.1c-.3 0-.3-.1-.3-.4v-.4c0-.2-.1-.4-.3-.4-.5 0-1.5 1.2-3.5 1.2-3.5 0-6.1-2.4-6.1-6v-9.5c0-.3.1-.3.3-.3h2.5c.3 0 .3.1.3.3v9.5c0 1.7 1.4 3.2 3.2 3.2 1.8 0 3.2-1.4 3.2-3.2v-9.5c0-.3.1-.3.4-.3H54c.3 0 .3.1.3.3v15.1c0 .3-.1.4-.3.4" fill="#FFF"/><path d="M68 204.1c0-1.7-1.4-3.2-3.2-3.2-1.8 0-3.2 1.4-3.2 3.2v3.9c0 1.7 1.4 3.2 3.2 3.2 1.8 0 3.2-1.4 3.2-3.2v-3.9zm2.8 9.8h-2.1c-.3 0-.3-.1-.3-.4v-.4c0-.2-.1-.4-.3-.4-.5 0-1.5 1.2-3.5 1.2-3.5 0-6.1-2.4-6.1-6V204c0-3.4 2.5-6 6-6 1.8 0 2.8 1.2 3.3 1.2.1 0 .3-.1.3-.4v-6.7c0-.3.1-.4.3-.4h2.5c.2 0 .3.1.3.4v21.4c-.1.3-.2.4-.4.4zM84.7 203.5c0-1.5-1.5-2.9-3.2-2.9-1.7 0-3.2 1.4-3.2 3 0 .4 0 .5.3.5h5.6c.5 0 .5-.2.5-.6m2.8 3h-8.8c-.3 0-.3.1-.3.3v1.4c0 1.7 1.4 3.2 3.2 3.2.8 0 1.5-.3 1.9-.8.8-.9 1.1-1.5 1.3-1.5.1 0 .1 0 .2.1l2.2 1.1c.1.1.2.1.2.2 0 .3-.4 1.2-1.5 2.1-1.1 1-2.5 1.5-4.4 1.5-3.8 0-6.3-2.4-6.3-6v-4.6c0-3.2 2.8-6 6.3-6s6.3 2.8 6.3 6v2.5c.1.5 0 .5-.3.5" fill="#FFF" fill-rule="nonzero"/><path d="M104.2 213.9h-2.5c-.3 0-.3-.1-.3-.4V204c0-1.7-1.4-3.2-3.2-3.2-1.8 0-3.2 1.4-3.2 3.2v9.5c0 .3-.1.4-.3.4h-2.5c-.2 0-.3-.1-.3-.4v-15.1c0-.3.1-.3.3-.3h2.1c.3 0 .3.1.3.3v.4c0 .2.1.4.3.4.5 0 1.4-1.2 3.5-1.2 3.5 0 6.1 2.4 6.1 6v9.5c0 .3-.1.4-.3.4M115.5 214.2c-2.9 0-5.7-2.4-5.7-5.9v-7c0-.2-.1-.4-.3-.4h-1.9c-.2 0-.3-.1-.3-.3l.1-1.2 4-4.3.2-.1h1.1c.2 0 .3.1.3.4v2.5c0 .3.1.3.3.3h2.5c.3 0 .4.1.4.3v2.1c0 .2-.1.3-.4.3h-2.5c-.3 0-.3.1-.3.4v7c0 .7.2 1.4.8 2 .3.4 1.1.6 2.1 1.1.2.1.3.1.3.3v2.1c0 .4-.2.4-.7.4M122.6 202.3c0 1.4 1.3 1.8 3.8 2.3 3.8.7 5.6 1.7 5.6 4.4 0 3.2-2.3 5.3-5.8 5.3h-1.1c-3.5 0-5.7-2.1-5.7-3.5 0-.1.1-.2.2-.2l2-1c.1 0 .1-.1.2-.1s.2.1.3.2c.8 1.1 1.5 2 3 2h1.1c1.6 0 2.7-.9 2.7-2 0-1.5-1.5-1.7-4.5-2.3-3.3-.7-4.9-1.7-4.9-4.3 0-3.1 2.3-5.2 5.7-5.2h1.1c3.5 0 5.7 2.1 5.7 3.5 0 .1-.1.2-.2.2l-2 1c-.1 0-.2.1-.2.1-.1 0-.1-.1-.3-.2-.9-1.1-1.5-2-3-2h-1.1c-1.6 0-2.6.6-2.6 1.8M149.8 213.6c0 .1-.1.3-.4.3h-3.1l-.3-.2-4.5-7.3c-.1-.1-.2-.2-.3-.2-.1 0-.2 0-.3.1l-1.3 1.4v5.8c0 .3-.1.4-.3.4h-2.5c-.3 0-.3-.1-.3-.4v-21.4c0-.3.1-.4.3-.4h2.5c.2 0 .3.1.3.4v11c0 .3.1.4.3.4.1 0 .2 0 .3-.1l4.7-5.1.2-.1h3c.2 0 .4.1.4.3 0 .1 0 .2-.1.3l-4.6 4.6c-.1.1-.1.2-.1.3 0 .1 0 .1.1.2l6 9.6v.1M155.8 213.9h-2.5c-.3 0-.3-.1-.3-.4v-15.1c0-.3.1-.3.3-.3h2.5c.2 0 .3.1.3.3v15.1c.1.3-.1.4-.3.4M47.9 229.3c0 1.4 1.3 1.8 3.8 2.3 3.8.7 5.6 1.7 5.6 4.4 0 3.2-2.3 5.3-5.8 5.3h-1.1c-3.5 0-5.7-2.1-5.7-3.5 0-.1.1-.2.2-.3l2-1c.1 0 .1-.1.2-.1s.2.1.3.2c.8 1.1 1.5 2 3 2h1.1c1.6 0 2.7-.9 2.7-2 0-1.5-1.5-1.7-4.5-2.3-3.3-.7-4.9-1.7-4.9-4.3 0-3.1 2.3-5.2 5.7-5.2h1.1c3.5 0 5.7 2.1 5.7 3.5 0 .1-.1.2-.2.2l-2 1c-.1 0-.2.1-.2.1-.1 0-.1-.1-.2-.2-.9-1.1-1.5-2-3-2h-1.1c-1.8.1-2.7.8-2.7 1.9" fill="#FFF"/><path d="M70.3 230.5c0-1.5-1.5-2.9-3.2-2.9-1.7 0-3.2 1.4-3.2 3 0 .4 0 .5.3.5H70c.3 0 .3-.1.3-.6m2.8 3.1h-8.8c-.2 0-.3.1-.3.4v1.4c0 1.7 1.4 3.2 3.2 3.2.8 0 1.5-.3 1.9-.8.8-.9 1.1-1.5 1.3-1.5.1 0 .1 0 .2.1l2.2 1.1c.1.1.2.1.2.3 0 .2-.4 1.2-1.5 2.1-1.1 1-2.5 1.5-4.4 1.5-3.8 0-6.3-2.4-6.3-6v-4.6c0-3.2 2.8-6 6.3-6s6.3 2.8 6.3 6v2.5c.1.2 0 .3-.3.3" fill="#FFF" fill-rule="nonzero"/><path d="M85.5 228.6c-.3 0-.8-.2-1.7-.2-2 0-3.2 1.2-3.2 3.1v9.1c0 .2-.1.3-.3.3h-2.5c-.2 0-.3-.1-.3-.3v-15.1c0-.3.1-.3.3-.3h2.1c.2 0 .3.1.3.3v1.1c0 .3.1.4.3.4.3 0 1.4-1.9 3.3-1.9 1.3 0 1.8 0 1.8.5v2.6c.1.3 0 .4-.1.4M96.8 240.8c-.1.1-.2.2-.3.2h-2.3c-.2 0-.3-.1-.3-.2l-6-15.1v-.2c0-.2.1-.3.3-.3h2.6c.1 0 .2.1.3.2l4.1 11.5 4.2-11.5c0-.1.1-.1.3-.2h2.6c.3 0 .3.1.3.3v.2l-5.8 15.1zM108.8 241h-2.5c-.3 0-.3-.1-.3-.3v-15.1c0-.3.1-.3.3-.3h2.5c.2 0 .3.1.3.3v15.1c0 .2-.1.3-.3.3M116.6 229.3c0 1.4 1.3 1.8 3.8 2.3 3.8.7 5.6 1.7 5.6 4.4 0 3.2-2.3 5.3-5.8 5.3h-1.1c-3.5 0-5.7-2.1-5.7-3.5 0-.1.1-.2.2-.3l2-1c.1 0 .1-.1.2-.1s.2.1.3.2c.8 1.1 1.5 2 3 2h1.1c1.6 0 2.7-.9 2.7-2 0-1.5-1.5-1.7-4.5-2.3-3.3-.7-4.9-1.7-4.9-4.3 0-3.1 2.3-5.2 5.7-5.2h1.1c3.5 0 5.7 2.1 5.7 3.5 0 .1-.1.2-.2.2l-2 1c-.1 0-.2.1-.2.1-.1 0-.1-.1-.3-.2-.9-1.1-1.5-2-3-2h-1.1c-1.6.1-2.6.8-2.6 1.9" fill="#FFF"/></g></svg>
