<svg width="267" height="88" xmlns="http://www.w3.org/2000/svg" viewBox="0 0 267 88"><g fill="none" fill-rule="evenodd"><path fill="#80BC00" d="M0 0h87.97v87.97H0z"/><path d="M36.11 45.18c3.21-.47 5.69-1.12 7.46-1.94 1.77-.82 3.5-2.13 5.19-3.93 1.69-1.8 3.16-4.07 4.4-6.82 1.24-2.75 1.86-5.32 1.86-7.72 0-1.02-.28-1.82-.85-2.4-.57-.58-1.29-.88-2.16-.88-1.75 0-3.72 1.22-5.9 3.66-4.01 4.44-7.34 11.12-10 20.03m-.49 2.87c-.33 2.38-.49 4.33-.49 5.87 0 2.75.79 4.94 2.38 6.58 1.59 1.65 3.72 2.47 6.38 2.47 2.56 0 5.12-.55 7.7-1.65 2.57-1.1 5.56-3.03 8.96-5.78l1.61 1.39c-4.2 4.75-8.29 8.14-12.27 10.16-3.98 2.02-8.37 3.03-13.19 3.03-6.1 0-10.31-1.46-12.65-4.38s-3.5-6.29-3.5-10.12c0-5.98 1.74-11.96 5.23-17.95 3.48-5.98 8.23-10.78 14.23-14.39 6-3.61 12.03-5.42 18.09-5.42 3.07 0 5.38.73 6.95 2.19 1.57 1.46 2.36 3.3 2.36 5.53 0 2.66-.77 5.25-2.3 7.76-2.12 3.43-4.78 6.19-7.99 8.29-3.21 2.1-6.8 3.69-10.78 4.79-2.66.72-6.24 1.26-10.72 1.63" fill="#FFF" fill-rule="nonzero"/><path fill="#0075C9" d="M90.52 0h175.94v87.97H90.52z"/><path d="M112.33 23.13l-.29.15h-1.31l-.29-.15-3.23-4.54a.621.621 0 0 1-.11-.29c0-.18.14-.29.4-.29h1.74l.29.18 1.56 2.47c.11.15.22.22.29.22.07 0 .18-.07.26-.22l1.6-2.47.29-.18h1.74c.26 0 .4.14.4.29 0 .07-.04.18-.11.29l-3.23 4.54zm-4.22 6.4c0 1.49 1.31 1.85 3.96 2.4 3.89.76 5.78 1.71 5.78 4.54 0 3.27-2.33 5.49-6 5.49h-1.09c-3.6 0-5.92-2.22-5.92-3.67 0-.08.07-.18.22-.25l2.11-1.06c.07-.04.15-.07.18-.07.11 0 .18.11.29.22.87 1.13 1.53 2.04 3.13 2.04h1.09c1.67 0 2.76-.95 2.76-2.11 0-1.56-1.6-1.75-4.62-2.36-3.45-.69-5.09-1.74-5.09-4.47 0-3.16 2.37-5.34 5.85-5.34h1.09c3.6 0 5.92 2.22 5.92 3.67 0 .11-.07.18-.22.25l-2.11 1.05c-.07.04-.18.07-.22.07-.11 0-.15-.11-.26-.22-.91-1.16-1.56-2.04-3.12-2.04h-1.09c-1.69.01-2.64.7-2.64 1.86z" fill="#FFF" fill-rule="nonzero"/><path d="M129.05 41.92c-2.98 0-5.85-2.51-5.85-6.14v-7.27c0-.25-.11-.37-.37-.37h-2c-.26 0-.36-.11-.36-.36l.07-1.27 4.18-4.43.26-.11h1.12c.25 0 .37.11.37.37v2.54c0 .26.11.36.36.36h2.54c.26 0 .37.11.37.36v2.18c0 .25-.11.36-.37.36h-2.54c-.25 0-.36.11-.36.37v7.27c0 .76.26 1.42.8 2.11.33.4 1.09.65 2.18 1.13.18.07.29.15.29.36v2.18c0 .33-.18.36-.69.36M146.38 41.6h-2.18c-.26 0-.36-.11-.36-.37v-.43c0-.25-.11-.4-.26-.4-.47 0-1.53 1.2-3.64 1.2-3.63 0-6.29-2.51-6.29-6.18V25.6c0-.26.11-.36.36-.36h2.54c.26 0 .36.11.36.36v9.81c0 1.78 1.42 3.27 3.27 3.27 1.86 0 3.27-1.49 3.27-3.27V25.6c0-.26.11-.36.37-.36h2.54c.26 0 .36.11.36.36v15.63c.02.26-.08.37-.34.37" fill="#FFF"/><path d="M160.85 31.42c0-1.78-1.45-3.27-3.27-3.27-1.85 0-3.27 1.49-3.27 3.27v4c0 1.78 1.41 3.27 3.27 3.27 1.82 0 3.27-1.49 3.27-3.27v-4zm2.9 10.18h-2.18c-.26 0-.36-.11-.36-.37v-.43c0-.25-.11-.4-.26-.4-.47 0-1.53 1.2-3.63 1.2-3.67 0-6.29-2.51-6.29-6.18v-4c0-3.56 2.58-6.18 6.18-6.18 1.82 0 2.87 1.2 3.38 1.2.14 0 .26-.15.26-.4v-6.98c0-.26.11-.37.36-.37h2.54c.22 0 .36.11.36.37v22.17c.01.26-.1.37-.36.37zM178.22 30.8c0-1.56-1.56-3.02-3.27-3.02-1.75 0-3.27 1.49-3.27 3.09 0 .4.04.55.36.55h5.82c.32 0 .36-.18.36-.62m2.9 3.16h-9.09c-.26 0-.36.11-.36.36v1.45c0 1.78 1.42 3.27 3.27 3.27.87 0 1.6-.33 2-.8.8-.95 1.13-1.53 1.35-1.53.07 0 .14.04.22.07l2.29 1.16c.14.07.22.15.22.25 0 .26-.44 1.2-1.53 2.22-1.09 1.02-2.62 1.53-4.54 1.53-3.96 0-6.54-2.47-6.54-6.18v-4.73c0-3.31 2.91-6.18 6.54-6.18s6.54 2.87 6.54 6.18v2.55c0 .28-.11.38-.37.38" fill="#FFF" fill-rule="nonzero"/><path d="M198.31 41.6h-2.55c-.26 0-.36-.11-.36-.37v-9.81c0-1.78-1.42-3.27-3.27-3.27-1.82 0-3.27 1.49-3.27 3.27v9.81c0 .26-.11.37-.36.37h-2.55c-.25 0-.36-.11-.36-.37V25.6c0-.26.11-.36.36-.36h2.18c.26 0 .36.11.36.36v.44c0 .25.11.4.26.4.47 0 1.49-1.2 3.64-1.2 3.67 0 6.29 2.51 6.29 6.18v9.81c-.01.26-.12.37-.37.37M210.08 41.92c-2.98 0-5.85-2.51-5.85-6.14v-7.27c0-.25-.11-.37-.36-.37h-2c-.25 0-.36-.11-.36-.36l.07-1.27 4.18-4.43.25-.11h1.13c.25 0 .36.11.36.37v2.54c0 .26.11.36.36.36h2.54c.26 0 .37.11.37.36v2.18c0 .25-.11.36-.37.36h-2.54c-.26 0-.36.11-.36.37v7.27c0 .76.25 1.42.8 2.11.33.4 1.09.65 2.18 1.13.18.07.29.15.29.36v2.18c0 .33-.18.36-.69.36M217.45 29.53c0 1.49 1.31 1.85 3.96 2.4 3.89.76 5.78 1.71 5.78 4.54 0 3.27-2.33 5.49-6 5.49h-1.09c-3.6 0-5.92-2.22-5.92-3.67 0-.08.07-.18.22-.25l2.11-1.06c.07-.04.15-.07.18-.07.11 0 .18.11.29.22.87 1.13 1.53 2.04 3.12 2.04h1.09c1.67 0 2.76-.95 2.76-2.11 0-1.56-1.6-1.75-4.62-2.36-3.45-.69-5.09-1.74-5.09-4.47 0-3.16 2.36-5.34 5.85-5.34h1.09c3.6 0 5.92 2.22 5.92 3.67 0 .11-.07.18-.22.25l-2.1 1.05a.67.67 0 0 1-.22.07c-.11 0-.15-.11-.26-.22-.91-1.16-1.56-2.04-3.13-2.04h-1.09c-1.68.01-2.63.7-2.63 1.86M245.59 41.31c0 .15-.14.29-.4.29h-3.2l-.33-.18-4.62-7.56c-.07-.15-.18-.22-.29-.22-.11 0-.22.04-.29.15l-1.38 1.42v6.03c0 .26-.11.37-.36.37h-2.54c-.26 0-.36-.11-.36-.37V19.06c0-.26.11-.37.36-.37h2.54c.25 0 .36.11.36.37V30.4c0 .26.14.4.33.4.11 0 .22-.04.29-.15l4.83-5.31.25-.11h3.09c.25 0 .4.11.4.29 0 .11-.04.22-.15.33l-4.72 4.8c-.07.11-.15.18-.15.26 0 .07.03.11.07.18l6.18 9.96c.05.07.09.18.09.26M251.77 41.6h-2.54c-.26 0-.36-.11-.36-.37V25.6c0-.26.11-.36.36-.36h2.54c.25 0 .36.11.36.36v15.63c0 .26-.11.37-.36.37M140.09 57.53c0 1.49 1.31 1.85 3.96 2.4 3.89.76 5.78 1.71 5.78 4.54 0 3.27-2.33 5.49-5.99 5.49h-1.09c-3.6 0-5.92-2.22-5.92-3.67 0-.08.07-.18.22-.26l2.11-1.05c.07-.04.15-.07.18-.07.11 0 .18.11.29.22.87 1.12 1.53 2.03 3.13 2.03h1.09c1.67 0 2.76-.94 2.76-2.11 0-1.56-1.6-1.75-4.62-2.36-3.45-.69-5.09-1.75-5.09-4.47 0-3.16 2.37-5.34 5.85-5.34h1.09c3.6 0 5.92 2.22 5.92 3.67 0 .11-.07.18-.22.25l-2.11 1.05c-.07.03-.18.07-.22.07-.11 0-.15-.11-.25-.21-.91-1.17-1.56-2.04-3.12-2.04h-1.09c-1.71.01-2.66.7-2.66 1.86" fill="#FFF"/><path d="M163.31 58.8c0-1.56-1.56-3.02-3.27-3.02-1.74 0-3.27 1.49-3.27 3.09 0 .4.04.55.36.55h5.82c.33 0 .36-.18.36-.62m2.91 3.17h-9.09c-.25 0-.36.11-.36.37v1.45c0 1.78 1.41 3.27 3.27 3.27.87 0 1.6-.33 2-.8.8-.94 1.13-1.52 1.35-1.52.07 0 .15.03.22.07l2.29 1.16c.14.08.21.15.21.26 0 .25-.43 1.2-1.52 2.22-1.09 1.02-2.61 1.53-4.55 1.53-3.96 0-6.54-2.47-6.54-6.18v-4.72c0-3.31 2.9-6.18 6.54-6.18s6.55 2.87 6.55 6.18v2.54c-.01.24-.12.35-.37.35" fill="#FFF" fill-rule="nonzero"/><path d="M179.01 56.8c-.33 0-.87-.25-1.78-.25-2.04 0-3.27 1.24-3.27 3.23v9.45c0 .25-.11.36-.36.36h-2.54c-.25 0-.36-.11-.36-.36V53.61c0-.26.11-.36.36-.36h2.18c.25 0 .36.11.36.36v1.16c0 .29.15.44.33.44.36 0 1.45-1.96 3.42-1.96 1.38 0 1.89.04 1.89.47v2.73c-.02.21-.09.35-.23.35M190.74 69.38c-.11.11-.22.18-.33.22h-2.33c-.18 0-.26-.07-.33-.22l-6.18-15.63c-.04-.07-.04-.14-.04-.22 0-.18.11-.29.36-.29h2.72c.11.04.22.11.33.22l4.25 11.89 4.33-11.89c.04-.07.15-.14.33-.22h2.72c.26 0 .36.11.36.29 0 .07 0 .15-.04.22l-6.15 15.63zM203.07 69.6h-2.54c-.26 0-.36-.11-.36-.36V53.61c0-.26.11-.36.36-.36h2.54c.25 0 .36.11.36.36v15.63c0 .25-.11.36-.36.36M211.24 57.53c0 1.49 1.31 1.85 3.97 2.4 3.89.76 5.78 1.71 5.78 4.54 0 3.27-2.33 5.49-6 5.49h-1.09c-3.6 0-5.92-2.22-5.92-3.67 0-.08.07-.18.22-.26l2.11-1.05c.08-.04.15-.07.18-.07.11 0 .18.11.29.22.87 1.12 1.53 2.03 3.12 2.03h1.09c1.67 0 2.76-.94 2.76-2.11 0-1.56-1.6-1.75-4.62-2.36-3.45-.69-5.09-1.75-5.09-4.47 0-3.16 2.36-5.34 5.85-5.34h1.09c3.6 0 5.92 2.22 5.92 3.67 0 .11-.07.18-.22.25l-2.11 1.05c-.07.03-.18.07-.22.07-.11 0-.14-.11-.26-.21-.91-1.17-1.57-2.04-3.13-2.04h-1.09c-1.68.01-2.63.7-2.63 1.86" fill="#FFF"/></g></svg>
