<!DOCTYPE svg PUBLIC "-//W3C//DTD SVG 1.1//EN" "http://www.w3.org/Graphics/SVG/1.1/DTD/svg11.dtd">
<!-- Uploaded to: SVG Repo, www.svgrepo.com, Transformed by: SVG Repo Mixer Tools -->
<svg version="1.1" id="Layer_1" xmlns="http://www.w3.org/2000/svg" xmlns:xlink="http://www.w3.org/1999/xlink" viewBox="0 0 512.001 512.001" xml:space="preserve" width="800px" height="800px" fill="#000000">

<g id="SVGRepo_bgCarrier" stroke-width="0"/>

<g id="SVGRepo_tracerCarrier" stroke-linecap="round" stroke-linejoin="round"/>

<g id="SVGRepo_iconCarrier"> <path style="fill:#FEDC3D;" d="M147.064,164.298c18.051,0,32.681,14.63,32.681,32.681s-14.63,32.681-32.681,32.681l-21.787-32.681 L147.064,164.298z"/> <path style="fill:#FFE777;" d="M147.064,164.298v65.362c-18.051,0-32.681-14.63-32.681-32.681S129.014,164.298,147.064,164.298z"/> <g> <polygon style="fill:#FEDC3D;" points="397.618,97.095 397.618,162.457 364.937,162.457 343.15,129.776 364.937,97.095 "/> <polygon style="fill:#FEDC3D;" points="256.001,8.17 293.584,73.532 256.001,73.532 241.839,59.552 "/> </g> <path style="fill:#02ACAB;" d="M256.001,394.894V503.83c30.077,0,54.468-24.391,54.468-54.468 C310.469,419.284,286.078,394.894,256.001,394.894z"/> <path style="fill:#42C8C6;" d="M256.001,394.894c12.037,0,21.787,24.391,21.787,54.468c0,30.077-9.75,54.468-21.787,54.468 c-30.077,0-54.468-24.391-54.468-54.468C201.532,419.284,225.923,394.894,256.001,394.894z"/> <g> <rect x="332.256" y="97.095" style="fill:#FFE777;" width="32.681" height="65.362"/> <polygon style="fill:#FFE777;" points="256.001,8.17 256.001,73.532 218.418,73.532 "/> </g> <path d="M397.618,88.93h-65.362c-4.513,0-8.17,3.657-8.17,8.17v65.362c0,4.513,3.657,8.17,8.17,8.17h24.511v29.957 c0,8.659-7.054,19.077-15.092,22.293l-77.504,31.001V146.122c0-4.513-3.657-8.17-8.17-8.17c-4.513,0-8.17,3.657-8.17,8.17v119.663 c0,0.033,0,55.294,0,55.294l-77.504-31.001c-8.04-3.216-15.092-13.633-15.092-22.293v-30.78c18.624-3.795,32.681-20.3,32.681-40.029 c0-22.526-18.325-40.851-40.851-40.851s-40.851,18.325-40.851,40.851c0,19.728,14.057,36.233,32.681,40.029v30.78 c0,15.32,11.142,31.776,25.365,37.465l83.571,33.428v48.596c-30.691,4.018-54.468,30.319-54.468,62.088 c0,34.539,28.099,62.638,62.638,62.638s62.638-28.099,62.638-62.638c0-31.769-23.777-58.07-54.468-62.088v-54.262 c0-0.033,0-61.528,0-61.528l83.571-33.428c14.224-5.69,25.365-22.146,25.365-37.465v-29.957h24.511c4.513,0,8.17-3.657,8.17-8.17 V97.101C405.788,92.587,402.131,88.93,397.618,88.93z M122.554,196.975c0-13.515,10.996-24.511,24.511-24.511 s24.511,10.996,24.511,24.511c0,13.515-10.996,24.511-24.511,24.511C133.55,221.486,122.554,210.491,122.554,196.975z M302.298,449.362c0,25.529-20.769,46.298-46.298,46.298c-25.529,0-46.298-20.769-46.298-46.298 c0-25.529,20.769-46.298,46.298-46.298C281.53,403.064,302.298,423.832,302.298,449.362z M389.447,154.292h-49.021V105.27h49.021 V154.292z"/> <path d="M218.418,81.702h29.413v31.739c0,4.513,3.657,8.17,8.17,8.17c4.513,0,8.17-3.657,8.17-8.17V81.702h29.413 c4.534,0,8.192-3.657,8.192-8.17c0-1.686-0.511-3.253-1.386-4.556L263.084,4.098C261.626,1.563,258.925,0,256.001,0 s-5.625,1.563-7.083,4.098L211.335,69.46c-1.453,2.527-1.449,5.64,0.011,8.164C212.806,80.148,215.501,81.702,218.418,81.702z M256.001,24.561l23.461,40.801H232.54L256.001,24.561z"/> </g>

</svg>